<svg xmlns="http://www.w3.org/2000/svg" xmlns:xlink="http://www.w3.org/1999/xlink" width="87" zoomAndPan="magnify" viewBox="0 0 65.25 42" height="56" preserveAspectRatio="xMidYMid meet" version="1.0"><defs><clipPath id="6d3df11acc"><path d="M 0.390625 0 L 64.125 0 L 64.125 41.023438 L 0.390625 41.023438 Z M 0.390625 0 " clip-rule="nonzero"/></clipPath><clipPath id="5c963c174a"><path d="M 1.960938 1.320312 L 40.789062 1.320312 L 40.789062 40.144531 L 1.960938 40.144531 Z M 1.960938 1.320312 " clip-rule="nonzero"/></clipPath><clipPath id="0bbfd4b32d"><path d="M 7 26 L 36 26 L 36 40.144531 L 7 40.144531 Z M 7 26 " clip-rule="nonzero"/></clipPath><clipPath id="5b8b460d5d"><path d="M 48.21875 17.71875 L 59.207031 17.71875 L 59.207031 23.578125 L 48.21875 23.578125 Z M 48.21875 17.71875 " clip-rule="nonzero"/></clipPath></defs><g clip-path="url(#6d3df11acc)"><path fill="#ffffff" d="M 0.390625 0 L 64.125 0 L 64.125 41.023438 L 0.390625 41.023438 Z M 0.390625 0 " fill-opacity="1" fill-rule="nonzero"/><path fill="#ffffff" d="M 0.390625 0 L 64.125 0 L 64.125 41.023438 L 0.390625 41.023438 Z M 0.390625 0 " fill-opacity="1" fill-rule="nonzero"/></g><g clip-path="url(#5c963c174a)"><path fill="#cdddec" d="M 40.773438 20.691406 C 40.773438 21.324219 40.742188 21.957031 40.679688 22.585938 C 40.617188 23.21875 40.523438 23.84375 40.398438 24.464844 C 40.273438 25.085938 40.121094 25.699219 39.9375 26.304688 C 39.75 26.910156 39.539062 27.503906 39.292969 28.089844 C 39.050781 28.675781 38.78125 29.246094 38.480469 29.804688 C 38.179688 30.363281 37.855469 30.90625 37.5 31.433594 C 37.148438 31.957031 36.769531 32.464844 36.367188 32.957031 C 35.964844 33.445312 35.539062 33.914062 35.089844 34.363281 C 34.636719 34.808594 34.167969 35.234375 33.675781 35.636719 C 33.1875 36.039062 32.675781 36.414062 32.148438 36.765625 C 31.617188 37.117188 31.074219 37.441406 30.515625 37.742188 C 29.953125 38.039062 29.378906 38.308594 28.792969 38.550781 C 28.207031 38.792969 27.609375 39.007812 27 39.191406 C 26.390625 39.375 25.777344 39.527344 25.152344 39.652344 C 24.527344 39.777344 23.902344 39.867188 23.269531 39.929688 C 22.636719 39.992188 22.003906 40.023438 21.367188 40.023438 C 20.730469 40.023438 20.097656 39.992188 19.464844 39.929688 C 18.832031 39.867188 18.203125 39.777344 17.582031 39.652344 C 16.957031 39.527344 16.34375 39.375 15.734375 39.191406 C 15.125 39.007812 14.527344 38.792969 13.941406 38.550781 C 13.351562 38.308594 12.78125 38.039062 12.21875 37.742188 C 11.660156 37.441406 11.113281 37.117188 10.585938 36.765625 C 10.058594 36.414062 9.546875 36.039062 9.054688 35.636719 C 8.566406 35.234375 8.09375 34.808594 7.644531 34.363281 C 7.195312 33.914062 6.769531 33.445312 6.367188 32.957031 C 5.964844 32.464844 5.585938 31.957031 5.230469 31.433594 C 4.878906 30.90625 4.550781 30.363281 4.253906 29.804688 C 3.953125 29.246094 3.683594 28.675781 3.4375 28.089844 C 3.195312 27.503906 2.980469 26.910156 2.796875 26.304688 C 2.613281 25.699219 2.457031 25.085938 2.335938 24.464844 C 2.210938 23.84375 2.117188 23.21875 2.054688 22.585938 C 1.992188 21.957031 1.960938 21.324219 1.960938 20.691406 C 1.960938 20.058594 1.992188 19.429688 2.054688 18.796875 C 2.117188 18.167969 2.210938 17.542969 2.335938 16.921875 C 2.457031 16.300781 2.613281 15.6875 2.796875 15.082031 C 2.980469 14.476562 3.195312 13.878906 3.4375 13.296875 C 3.683594 12.710938 3.953125 12.136719 4.253906 11.582031 C 4.550781 11.023438 4.878906 10.480469 5.230469 9.953125 C 5.585938 9.425781 5.964844 8.917969 6.367188 8.429688 C 6.769531 7.941406 7.195312 7.472656 7.644531 7.023438 C 8.09375 6.574219 8.566406 6.152344 9.054688 5.75 C 9.546875 5.347656 10.058594 4.972656 10.585938 4.621094 C 11.113281 4.269531 11.660156 3.941406 12.21875 3.644531 C 12.78125 3.347656 13.351562 3.074219 13.941406 2.832031 C 14.527344 2.589844 15.125 2.378906 15.734375 2.195312 C 16.34375 2.011719 16.957031 1.855469 17.582031 1.734375 C 18.203125 1.609375 18.832031 1.515625 19.464844 1.453125 C 20.097656 1.394531 20.730469 1.363281 21.367188 1.363281 C 22.003906 1.359375 22.636719 1.386719 23.269531 1.449219 C 23.90625 1.507812 24.535156 1.597656 25.15625 1.71875 C 25.78125 1.84375 26.398438 1.996094 27.007812 2.175781 C 27.617188 2.359375 28.214844 2.570312 28.804688 2.8125 C 29.394531 3.054688 29.96875 3.324219 30.53125 3.621094 C 31.089844 3.917969 31.636719 4.242188 32.164062 4.597656 C 32.695312 4.949219 33.207031 5.324219 33.699219 5.726562 C 34.191406 6.128906 34.660156 6.550781 35.109375 7 C 35.5625 7.449219 35.988281 7.917969 36.390625 8.410156 C 36.792969 8.898438 37.171875 9.40625 37.523438 9.933594 C 37.878906 10.460938 38.203125 11.003906 38.503906 11.566406 C 38.800781 12.125 39.074219 12.695312 39.316406 13.28125 C 39.558594 13.867188 39.769531 14.464844 39.953125 15.074219 C 40.136719 15.679688 40.289062 16.292969 40.410156 16.917969 C 40.535156 17.539062 40.625 18.164062 40.683594 18.796875 C 40.746094 19.425781 40.773438 20.058594 40.773438 20.691406 Z M 40.773438 20.691406 " fill-opacity="1" fill-rule="nonzero"/></g><g clip-path="url(#0bbfd4b32d)"><path fill="#9b59b6" d="M 35.847656 33.5625 C 35.402344 34.058594 34.933594 34.53125 34.4375 34.980469 C 33.945312 35.425781 33.429688 35.847656 32.894531 36.242188 C 32.355469 36.640625 31.800781 37.003906 31.222656 37.34375 C 30.648438 37.683594 30.058594 37.988281 29.449219 38.265625 C 28.84375 38.542969 28.222656 38.789062 27.589844 39.003906 C 26.957031 39.214844 26.316406 39.394531 25.664062 39.542969 C 25.011719 39.691406 24.355469 39.804688 23.691406 39.882812 C 23.03125 39.964844 22.363281 40.007812 21.695312 40.019531 C 21.027344 40.03125 20.363281 40.007812 19.695312 39.953125 C 19.03125 39.894531 18.371094 39.804688 17.714844 39.679688 C 17.058594 39.554688 16.410156 39.394531 15.769531 39.203125 C 15.132812 39.011719 14.503906 38.789062 13.886719 38.53125 C 13.269531 38.273438 12.667969 37.988281 12.082031 37.667969 C 11.496094 37.351562 10.925781 37.003906 10.378906 36.625 C 9.828125 36.25 9.296875 35.847656 8.789062 35.414062 C 8.28125 34.984375 7.792969 34.527344 7.332031 34.046875 C 7.628906 33.585938 7.945312 33.121094 8.289062 32.660156 C 11.65625 28.105469 18.386719 27.003906 18.386719 27.003906 L 18.605469 26.957031 L 21.75 26.273438 L 21.789062 26.28125 L 24.5625 26.882812 L 25.113281 27.003906 C 25.113281 27.003906 31.847656 28.105469 35.210938 32.660156 C 35.433594 32.960938 35.644531 33.261719 35.847656 33.5625 Z M 35.847656 33.5625 " fill-opacity="1" fill-rule="nonzero"/></g><path fill="#2c3e50" d="M 27.199219 15.878906 C 31.078125 14.613281 31.847656 11.535156 30.839844 10.621094 C 29.828125 9.707031 27.613281 10.621094 27.613281 10.621094 C 27.613281 10.621094 28.832031 8.71875 28 7.605469 C 27.164062 6.492188 26.535156 8.765625 24.484375 8.953125 C 22.433594 9.140625 19.351562 8.039062 17.839844 9.566406 C 16.332031 11.09375 16.972656 12.480469 16.972656 12.480469 C 16.972656 12.480469 13.8125 12.601562 14.496094 15.753906 C 15.179688 18.90625 17.3125 22.167969 18.539062 23.445312 C 19.761719 24.722656 23.007812 19.902344 23.007812 19.902344 Z M 27.199219 15.878906 " fill-opacity="1" fill-rule="nonzero"/><path fill="#ffc4b5" d="M 22.5 29.917969 C 20.621094 30.066406 19.542969 29.089844 18.816406 27.953125 C 18.628906 27.660156 18.558594 27.339844 18.601562 26.996094 C 18.746094 25.84375 18.832031 24.683594 18.855469 23.519531 C 18.875 22.679688 18.878906 21.71875 18.84375 20.636719 L 24.71875 22.816406 L 24.605469 25.710938 L 24.5625 27 L 24.53125 27.710938 C 24.53125 27.710938 24.855469 29.726562 22.5 29.917969 Z M 22.5 29.917969 " fill-opacity="1" fill-rule="nonzero"/><path fill="#ff8286" d="M 24.558594 27 C 21.699219 26.964844 19.554688 24.796875 18.855469 23.519531 C 18.875 22.679688 18.878906 21.71875 18.84375 20.636719 L 24.71875 22.816406 L 24.605469 25.710938 Z M 24.558594 27 " fill-opacity="1" fill-rule="nonzero"/><path fill="#ffc4b5" d="M 28.289062 13.496094 C 22.4375 15.816406 19.832031 15.539062 19.832031 15.539062 C 19.832031 15.539062 20.011719 18.980469 19.503906 19.121094 C 19 19.261719 19.488281 17.773438 18.476562 17.195312 C 17.460938 16.617188 15.878906 17.707031 16.238281 19.136719 C 16.597656 20.566406 18.523438 20.175781 18.523438 20.175781 C 18.523438 20.175781 19.847656 25.828125 24.777344 25.699219 C 29.707031 25.566406 28.984375 17.75 28.6875 16.550781 C 28.390625 15.355469 28.289062 13.496094 28.289062 13.496094 Z M 28.289062 13.496094 " fill-opacity="1" fill-rule="nonzero"/><g clip-path="url(#5b8b460d5d)"><path fill="#000000" d="M 58.917969 18.011719 C 58.761719 17.859375 58.574219 17.78125 58.347656 17.78125 C 58.121094 17.78125 57.929688 17.859375 57.777344 18.011719 L 53.753906 21.777344 L 49.707031 18.011719 C 49.550781 17.867188 49.359375 17.792969 49.136719 17.792969 C 48.914062 17.792969 48.726562 17.867188 48.566406 18.015625 C 48.410156 18.160156 48.332031 18.335938 48.332031 18.546875 C 48.332031 18.753906 48.410156 18.929688 48.566406 19.078125 L 53.171875 23.375 C 53.324219 23.53125 53.515625 23.609375 53.742188 23.609375 C 53.96875 23.609375 54.15625 23.53125 54.3125 23.375 L 58.917969 19.078125 C 59.082031 18.933594 59.164062 18.757812 59.164062 18.546875 C 59.164062 18.335938 59.082031 18.15625 58.917969 18.011719 Z M 58.917969 18.011719 " fill-opacity="1" fill-rule="nonzero"/></g></svg>